<svg id="kity_svg_6" xmlns="http://www.w3.org/2000/svg" xmlns:xlink="http://www.w3.org/1999/xlink" version="1.1" width="1770" height="1301" style="background: rgb(251, 251, 251); visibility: visible;" viewBox="0 0 1770 1301"><defs id="kity_defs_7"><linearGradient id="kity_linearGradient_17" x1="0" y1="0" x2="0" y2="1"><stop id="kity_stop_18" offset="0" stop-color="rgb(255, 255, 255)"></stop><stop id="kity_stop_19" offset="1" stop-color="rgb(204, 204, 204)"></stop></linearGradient><marker id="kity_marker_2" orient="auto" refX="6" refY="0" viewBox="-7 -7 14 14" markerWidth="7" markerHeight="7" markerUnits="userSpaceOnUse"><path id="kity_path_3" fill="rgb(115, 161, 191)" stroke="none" d="M6,0A6,6,0,1,1,-6,0A6,6,0,1,1,6,0"></path></marker></defs><g id="kity_g_8"><g id="minder1" text-rendering="optimize-speed"><g id="minder_connect_group1"><path id="kity_path_31" fill="none" stroke="rgb(115, 161, 191)" stroke-width="1" d="M928.5,840.5A229,510,0,0,1,1157.5,330.5"></path><path id="kity_path_33" fill="none" stroke="rgb(115, 161, 191)" stroke-width="1" d="M1296.5,330.5C1311.5,330.5,1311.5,175.5,1326.5,175.5L1385.5,175.5"></path><path id="kity_path_35" fill="none" stroke="rgb(115, 161, 191)" stroke-width="1" d="M1385.5,175.5C1400.5,175.5,1400.5,175.5,1415.5,175.5L1522.5,175.5"></path><path id="kity_path_37" fill="none" stroke="rgb(115, 161, 191)" stroke-width="1" d="M1522.5,175.5C1537.5,175.5,1537.5,45.5,1552.5,45.5L1618.5,45.5"></path><path id="kity_path_39" fill="none" stroke="rgb(115, 161, 191)" stroke-width="1" d="M1522.5,175.5C1537.5,175.5,1537.5,97.5,1552.5,97.5L1633.5,97.5"></path><path id="kity_path_41" fill="none" stroke="rgb(115, 161, 191)" stroke-width="1" d="M1522.5,175.5C1537.5,175.5,1537.5,149.5,1552.5,149.5L1604.5,149.5"></path><path id="kity_path_43" fill="none" stroke="rgb(115, 161, 191)" stroke-width="1" d="M1522.5,175.5C1537.5,175.5,1537.5,201.5,1552.5,201.5L1619.5,201.5"></path><path id="kity_path_45" fill="none" stroke="rgb(115, 161, 191)" stroke-width="1" d="M1522.5,175.5C1537.5,175.5,1537.5,253.5,1552.5,253.5L1602.5,253.5"></path><path id="kity_path_47" fill="none" stroke="rgb(115, 161, 191)" stroke-width="1" d="M1522.5,175.5C1537.5,175.5,1537.5,305.5,1552.5,305.5L1618.5,305.5"></path><path id="kity_path_49" fill="none" stroke="rgb(115, 161, 191)" stroke-width="1" d="M1296.5,330.5C1311.5,330.5,1311.5,357.5,1326.5,357.5L1392.5,357.5"></path><path id="kity_path_51" fill="none" stroke="rgb(115, 161, 191)" stroke-width="1" d="M1296.5,330.5C1311.5,330.5,1311.5,409.5,1326.5,409.5L1382.5,409.5"></path><path id="kity_path_53" fill="none" stroke="rgb(115, 161, 191)" stroke-width="1" d="M1296.5,330.5C1311.5,330.5,1311.5,461.5,1326.5,461.5L1376.5,461.5"></path><path id="kity_path_55" fill="none" stroke="rgb(115, 161, 191)" stroke-width="1" d="M1296.5,330.5C1311.5,330.5,1311.5,513.5,1326.5,513.5L1392.5,513.5"></path><path id="kity_path_63" fill="none" stroke="rgb(115, 161, 191)" stroke-width="1" d="M1285.5,905.5C1300.5,905.5,1300.5,1133.5,1315.5,1133.5L1436.5,1133.5"></path><path id="kity_path_73" fill="none" stroke="rgb(115, 161, 191)" stroke-width="1" d="M609.5,1073.5C593.5,1073.5,593.5,1203.5,577.5,1203.5L467.5,1203.5"></path><path id="kity_path_89" fill="none" stroke="rgb(115, 161, 191)" stroke-width="1" d="M928.5,840.5A200,51,0,0,0,1128.5,891.5"></path><path id="kity_path_91" fill="none" stroke="rgb(115, 161, 191)" stroke-width="1" d="M1193.5,891.5C1208.5,891.5,1208.5,905.5,1223.5,905.5L1285.5,905.5"></path><path id="kity_path_93" fill="none" stroke="rgb(115, 161, 191)" stroke-width="1" d="M1285.5,905.5C1300.5,905.5,1300.5,678.5,1315.5,678.5L1379.5,678.5"></path><path id="kity_path_95" fill="none" stroke="rgb(115, 161, 191)" stroke-width="1" d="M1285.5,905.5C1300.5,905.5,1300.5,730.5,1315.5,730.5L1374.5,730.5"></path><path id="kity_path_97" fill="none" stroke="rgb(115, 161, 191)" stroke-width="1" d="M1285.5,905.5C1300.5,905.5,1300.5,990.5,1315.5,990.5L1390.5,990.5"></path><path id="kity_path_99" fill="none" stroke="rgb(115, 161, 191)" stroke-width="1" d="M928.5,840.5A200,408,0,0,0,1128.5,1248.5"></path><path id="kity_path_101" fill="none" stroke="rgb(115, 161, 191)" stroke-width="1" d="M928.5,840.5A200,232,0,0,0,728.5,608.5"></path><path id="kity_path_103" fill="none" stroke="rgb(115, 161, 191)" stroke-width="1" d="M928.5,840.5A200,233,0,0,1,728.5,1073.5"></path><path id="kity_path_105" fill="none" stroke="rgb(115, 161, 191)" stroke-width="1" d="M609.5,1073.5C594.5,1073.5,594.5,918.5,579.5,918.5L449.5,918.5"></path><path id="kity_path_107" fill="none" stroke="rgb(115, 161, 191)" stroke-width="1" d="M609.5,1073.5C594.5,1073.5,594.5,970.5,579.5,970.5L443.5,970.5"></path><path id="kity_path_109" fill="none" stroke="rgb(115, 161, 191)" stroke-width="1" d="M609.5,1073.5C594.5,1073.5,594.5,1022.5,579.5,1022.5L483.5,1022.5"></path><path id="kity_path_111" fill="none" stroke="rgb(115, 161, 191)" stroke-width="1" d="M609.5,1073.5C594.5,1073.5,594.5,1074.5,579.5,1074.5L500.5,1074.5"></path><path id="kity_path_367" fill="none" stroke="rgb(115, 161, 191)" stroke-width="1" d="M1285.5,905.5C1300.5,905.5,1300.5,834.5,1315.5,834.5L1373.5,834.5"></path><path id="kity_path_383" fill="none" stroke="rgb(115, 161, 191)" stroke-width="1" d="M1285.5,905.5C1300.5,905.5,1300.5,938.5,1315.5,938.5L1440.5,938.5"></path><path id="kity_path_391" fill="none" stroke="rgb(115, 161, 191)" stroke-width="1" d="M1285.5,905.5C1300.5,905.5,1300.5,1042.5,1315.5,1042.5L1395.5,1042.5"></path><path id="kity_path_405" fill="none" stroke="rgb(115, 161, 191)" stroke-width="1" d="M157.5,1125.5C142.5,1125.5,142.5,1073.5,127.5,1073.5L20.5,1073.5"></path><path id="kity_path_406" fill="none" stroke="rgb(115, 161, 191)" stroke-width="1" d="M157.5,1125.5C142.5,1125.5,142.5,1125.5,127.5,1125.5L49.5,1125.5"></path><path id="kity_path_407" fill="none" stroke="rgb(115, 161, 191)" stroke-width="1" d="M157.5,1125.5C142.5,1125.5,142.5,1177.5,127.5,1177.5L45.5,1177.5"></path><path id="kity_path_408" fill="none" stroke="rgb(115, 161, 191)" stroke-width="1" d="M308.5,1125.5C293.5,1125.5,293.5,1125.5,278.5,1125.5L157.5,1125.5"></path><path id="kity_path_409" fill="none" stroke="rgb(115, 161, 191)" stroke-width="1" d="M467.5,1203.5C452.5,1203.5,452.5,1125.5,437.5,1125.5L308.5,1125.5"></path><path id="kity_path_410" fill="none" stroke="rgb(115, 161, 191)" stroke-width="1" d="M467.5,1203.5C452.5,1203.5,452.5,1229.5,437.5,1229.5L345.5,1229.5"></path><path id="kity_path_411" fill="none" stroke="rgb(115, 161, 191)" stroke-width="1" d="M467.5,1203.5C452.5,1203.5,452.5,1281.5,437.5,1281.5L307.5,1281.5"></path><path id="kity_path_412" fill="none" stroke="rgb(115, 161, 191)" stroke-width="1" d="M1436.5,1133.5C1451.5,1133.5,1451.5,1094.5,1466.5,1094.5L1566.5,1094.5"></path><path id="kity_path_413" fill="none" stroke="rgb(115, 161, 191)" stroke-width="1" d="M1596.5,1172.5C1611.5,1172.5,1611.5,1146.5,1626.5,1146.5L1693.5,1146.5"></path><path id="kity_path_414" fill="none" stroke="rgb(115, 161, 191)" stroke-width="1" d="M1436.5,1133.5C1451.5,1133.5,1451.5,1172.5,1466.5,1172.5L1596.5,1172.5"></path><path id="kity_path_416" fill="none" stroke="rgb(115, 161, 191)" stroke-width="1" d="M643.5,608.5C628.5,608.5,628.5,388.5,613.5,388.5L545.5,388.5"></path><path id="kity_path_424" fill="none" stroke="rgb(115, 161, 191)" stroke-width="1" d="M1596.5,1172.5C1611.5,1172.5,1611.5,1198.5,1626.5,1198.5L1750.5,1198.5"></path><path id="kity_path_432" fill="none" stroke="rgb(115, 161, 191)" stroke-width="1" d="M1373.5,834.5C1388.5,834.5,1388.5,834.5,1403.5,834.5L1528.5,834.5"></path><path id="kity_path_456" fill="none" stroke="rgb(115, 161, 191)" stroke-width="1" d="M1528.5,834.5C1543.5,834.5,1543.5,782.5,1558.5,782.5L1611.5,782.5"></path><path id="kity_path_464" fill="none" stroke="rgb(115, 161, 191)" stroke-width="1" d="M1528.5,834.5C1543.5,834.5,1543.5,834.5,1558.5,834.5L1612.5,834.5"></path><path id="kity_path_472" fill="none" stroke="rgb(115, 161, 191)" stroke-width="1" d="M1528.5,834.5C1543.5,834.5,1543.5,886.5,1558.5,886.5L1597.5,886.5"></path><path id="kity_path_480" fill="none" stroke="rgb(115, 161, 191)" stroke-width="1" d="M643.5,608.5C628.5,608.5,628.5,856.5,613.5,856.5L483.5,856.5"></path><path id="kity_path_504" fill="none" stroke="rgb(115, 161, 191)" stroke-width="1" d="M643.5,608.5C628.5,608.5,628.5,622.5,613.5,622.5L481.5,622.5"></path><path id="kity_path_512" fill="none" stroke="rgb(115, 161, 191)" stroke-width="1" d="M481.5,622.5C466.5,622.5,466.5,622.5,451.5,622.5L389.5,622.5"></path><path id="kity_path_520" fill="none" stroke="rgb(115, 161, 191)" stroke-width="1" d="M389.5,622.5C374.5,622.5,374.5,440.5,359.5,440.5L165.5,440.5"></path><path id="kity_path_528" fill="none" stroke="rgb(115, 161, 191)" stroke-width="1" d="M389.5,622.5C374.5,622.5,374.5,700.5,359.5,700.5L314.5,700.5"></path><path id="kity_path_536" fill="none" stroke="rgb(115, 161, 191)" stroke-width="1" d="M389.5,622.5C374.5,622.5,374.5,752.5,359.5,752.5L284.5,752.5"></path><path id="kity_path_544" fill="none" stroke="rgb(115, 161, 191)" stroke-width="1" d="M389.5,622.5C374.5,622.5,374.5,804.5,359.5,804.5L252.5,804.5"></path><path id="kity_path_568" fill="none" stroke="rgb(115, 161, 191)" stroke-width="1" d="M389.5,622.5C374.5,622.5,374.5,492.5,359.5,492.5L257.5,492.5"></path><path id="kity_path_576" fill="none" stroke="rgb(115, 161, 191)" stroke-width="1" d="M389.5,622.5C374.5,622.5,374.5,544.5,359.5,544.5L290.5,544.5"></path><path id="kity_path_584" fill="none" stroke="rgb(115, 161, 191)" stroke-width="1" d="M389.5,622.5C374.5,622.5,374.5,648.5,359.5,648.5L318.5,648.5"></path><path id="kity_path_592" fill="none" stroke="rgb(115, 161, 191)" stroke-width="1" d="M389.5,622.5C374.5,622.5,374.5,596.5,359.5,596.5L268.5,596.5"></path></g><g id="minder_node1"><path id="node_outline1" fill="rgb(115, 161, 191)" stroke="rgb(115, 161, 191)" d="M851.5,820.5h154a5,5,0,0,1,5,5v30a5,5,0,0,1,-5,5h-154a5,5,0,0,1,-5,-5v-30a5,5,0,0,1,5,-5z" stroke-width="3"></path><g id="node_text1" fill="white"><text id="kity_text_22" text-rendering="inherit" font-size="16" dy=".8em" y="830.0999999046326" x="870.5">Service Worker</text></g></g><g id="kity_g_14" display="none"><path id="kity_path_15" fill="none" stroke="none" d="M870.5,840.5h0v0h0z"></path><path id="kity_path_16" fill="none" stroke="none"></path></g><g id="minder_node2"><g id="node_expander13" style="cursor: pointer;"><path id="kity_path_272" fill="white" stroke="gray" d="M1158.5,330.5A6,6,0,1,1,1146.5,330.5A6,6,0,1,1,1158.5,330.5"></path><path id="kity_path_273" fill="none" stroke="gray" d="M1148,330.5L1157,330.5"></path></g><path id="node_outline14" fill="rgb(238, 243, 246)" stroke="rgb(115, 161, 191)" d="M1162.5,317.5h131a3,3,0,0,1,3,3v20a3,3,0,0,1,-3,3h-131a3,3,0,0,1,-3,-3v-20a3,3,0,0,1,3,-3z" stroke-width="1"></path><g id="node_text14" fill="black"><text id="kity_text_137" text-rendering="inherit" font-size="14" dy=".8em" y="321.40000009536743" x="1179.5">Cache Storage</text></g></g><g id="minder_node3"><g id="node_expander8" style="cursor: pointer;"><path id="kity_path_257" fill="white" stroke="gray" d="M1336.5,161.5A6,6,0,1,1,1324.5,161.5A6,6,0,1,1,1336.5,161.5"></path><path id="kity_path_258" fill="none" stroke="gray" d="M1326,161.5L1335,161.5"></path></g><path id="node_outline9" fill="none" stroke="none" d="M1341.5,150.5h39a5,5,0,0,1,5,5v12a5,5,0,0,1,-5,5h-39a5,5,0,0,1,-5,-5v-12a5,5,0,0,1,5,-5z"></path><g id="node_text9" fill="black"><text id="kity_text_127" text-rendering="inherit" font-size="12" dy=".8em" y="153.70000004768372" x="1346.5">open</text></g></g><g id="minder_node4"><g id="node_expander7" style="cursor: pointer;"><path id="kity_path_254" fill="white" stroke="gray" d="M1425.5,161.5A6,6,0,1,1,1413.5,161.5A6,6,0,1,1,1425.5,161.5"></path><path id="kity_path_255" fill="none" stroke="gray" d="M1415,161.5L1424,161.5"></path></g><path id="node_outline8" fill="none" stroke="none" d="M1430.5,150.5h87a5,5,0,0,1,5,5v12a5,5,0,0,1,-5,5h-87a5,5,0,0,1,-5,-5v-12a5,5,0,0,1,5,-5z"></path><g id="node_text8" fill="black"><text id="kity_text_125" text-rendering="inherit" font-size="12" dy=".8em" y="153.70000004768372" x="1435.5">Cache Object</text></g></g><g id="minder_node5"><g id="node_expander1" style="cursor: pointer;" display="none"><path id="kity_path_236" fill="white" stroke="gray" d="M1562.5,31.5A6,6,0,1,1,1550.5,31.5A6,6,0,1,1,1562.5,31.5"></path><path id="kity_path_237" fill="none" stroke="gray"></path></g><path id="node_outline2" fill="none" stroke="none" d="M1567.5,20.5h46a5,5,0,0,1,5,5v12a5,5,0,0,1,-5,5h-46a5,5,0,0,1,-5,-5v-12a5,5,0,0,1,5,-5z"></path><g id="node_text2" fill="black"><text id="kity_text_113" text-rendering="inherit" font-size="12" dy=".8em" y="23.700000047683716" x="1572.5">match</text></g></g><g id="minder_node6"><g id="node_expander2" style="cursor: pointer;" display="none"><path id="kity_path_239" fill="white" stroke="gray" d="M1562.5,83.5A6,6,0,1,1,1550.5,83.5A6,6,0,1,1,1562.5,83.5"></path><path id="kity_path_240" fill="none" stroke="gray"></path></g><path id="node_outline3" fill="none" stroke="none" d="M1567.5,72.5h61a5,5,0,0,1,5,5v12a5,5,0,0,1,-5,5h-61a5,5,0,0,1,-5,-5v-12a5,5,0,0,1,5,-5z"></path><g id="node_text3" fill="black"><text id="kity_text_115" text-rendering="inherit" font-size="12" dy=".8em" y="75.70000004768372" x="1572.5">matchAll</text></g></g><g id="minder_node7"><g id="node_expander3" style="cursor: pointer;" display="none"><path id="kity_path_242" fill="white" stroke="gray" d="M1562.5,135.5A6,6,0,1,1,1550.5,135.5A6,6,0,1,1,1562.5,135.5"></path><path id="kity_path_243" fill="none" stroke="gray"></path></g><path id="node_outline4" fill="none" stroke="none" d="M1567.5,124.5h32a5,5,0,0,1,5,5v12a5,5,0,0,1,-5,5h-32a5,5,0,0,1,-5,-5v-12a5,5,0,0,1,5,-5z"></path><g id="node_text4" fill="black"><text id="kity_text_117" text-rendering="inherit" font-size="12" dy=".8em" y="127.70000004768372" x="1572.5">add</text></g></g><g id="minder_node8"><g id="node_expander4" style="cursor: pointer;" display="none"><path id="kity_path_245" fill="white" stroke="gray" d="M1562.5,187.5A6,6,0,1,1,1550.5,187.5A6,6,0,1,1,1562.5,187.5"></path><path id="kity_path_246" fill="none" stroke="gray"></path></g><path id="node_outline5" fill="none" stroke="none" d="M1567.5,176.5h47a5,5,0,0,1,5,5v12a5,5,0,0,1,-5,5h-47a5,5,0,0,1,-5,-5v-12a5,5,0,0,1,5,-5z"></path><g id="node_text5" fill="black"><text id="kity_text_119" text-rendering="inherit" font-size="12" dy=".8em" y="179.70000004768372" x="1572.5">addAll</text></g></g><g id="minder_node9"><g id="node_expander5" style="cursor: pointer;" display="none"><path id="kity_path_248" fill="white" stroke="gray" d="M1562.5,239.5A6,6,0,1,1,1550.5,239.5A6,6,0,1,1,1562.5,239.5"></path><path id="kity_path_249" fill="none" stroke="gray"></path></g><path id="node_outline6" fill="none" stroke="none" d="M1567.5,228.5h30a5,5,0,0,1,5,5v12a5,5,0,0,1,-5,5h-30a5,5,0,0,1,-5,-5v-12a5,5,0,0,1,5,-5z"></path><g id="node_text6" fill="black"><text id="kity_text_121" text-rendering="inherit" font-size="12" dy=".8em" y="231.70000004768372" x="1572.5">put</text></g></g><g id="minder_node10"><g id="node_expander6" style="cursor: pointer;" display="none"><path id="kity_path_251" fill="white" stroke="gray" d="M1562.5,291.5A6,6,0,1,1,1550.5,291.5A6,6,0,1,1,1562.5,291.5"></path><path id="kity_path_252" fill="none" stroke="gray"></path></g><path id="node_outline7" fill="none" stroke="none" d="M1567.5,280.5h46a5,5,0,0,1,5,5v12a5,5,0,0,1,-5,5h-46a5,5,0,0,1,-5,-5v-12a5,5,0,0,1,5,-5z"></path><g id="node_text7" fill="black"><text id="kity_text_123" text-rendering="inherit" font-size="12" dy=".8em" y="283.7000000476837" x="1572.5">delete</text></g></g><g id="minder_node11"><g id="node_expander9" style="cursor: pointer;" display="none"><path id="kity_path_260" fill="white" stroke="gray" d="M1336.5,343.5A6,6,0,1,1,1324.5,343.5A6,6,0,1,1,1336.5,343.5"></path><path id="kity_path_261" fill="none" stroke="gray"></path></g><path id="node_outline10" fill="none" stroke="none" d="M1341.5,332.5h46a5,5,0,0,1,5,5v12a5,5,0,0,1,-5,5h-46a5,5,0,0,1,-5,-5v-12a5,5,0,0,1,5,-5z"></path><g id="node_text10" fill="black"><text id="kity_text_129" text-rendering="inherit" font-size="12" dy=".8em" y="335.7000000476837" x="1346.5">match</text></g></g><g id="minder_node12"><g id="node_expander10" style="cursor: pointer;" display="none"><path id="kity_path_263" fill="white" stroke="gray" d="M1336.5,395.5A6,6,0,1,1,1324.5,395.5A6,6,0,1,1,1336.5,395.5"></path><path id="kity_path_264" fill="none" stroke="gray"></path></g><path id="node_outline11" fill="none" stroke="none" d="M1341.5,384.5h36a5,5,0,0,1,5,5v12a5,5,0,0,1,-5,5h-36a5,5,0,0,1,-5,-5v-12a5,5,0,0,1,5,-5z"></path><g id="node_text11" fill="black"><text id="kity_text_131" text-rendering="inherit" font-size="12" dy=".8em" y="387.7000000476837" x="1346.5">keys</text></g></g><g id="minder_node13"><g id="node_expander11" style="cursor: pointer;" display="none"><path id="kity_path_266" fill="white" stroke="gray" d="M1336.5,447.5A6,6,0,1,1,1324.5,447.5A6,6,0,1,1,1336.5,447.5"></path><path id="kity_path_267" fill="none" stroke="gray"></path></g><path id="node_outline12" fill="none" stroke="none" d="M1341.5,436.5h30a5,5,0,0,1,5,5v12a5,5,0,0,1,-5,5h-30a5,5,0,0,1,-5,-5v-12a5,5,0,0,1,5,-5z"></path><g id="node_text12" fill="black"><text id="kity_text_133" text-rendering="inherit" font-size="12" dy=".8em" y="439.7000000476837" x="1346.5">has</text></g></g><g id="minder_node14"><g id="node_expander12" style="cursor: pointer;" display="none"><path id="kity_path_269" fill="white" stroke="gray" d="M1336.5,499.5A6,6,0,1,1,1324.5,499.5A6,6,0,1,1,1336.5,499.5"></path><path id="kity_path_270" fill="none" stroke="gray"></path></g><path id="node_outline13" fill="none" stroke="none" d="M1341.5,488.5h46a5,5,0,0,1,5,5v12a5,5,0,0,1,-5,5h-46a5,5,0,0,1,-5,-5v-12a5,5,0,0,1,5,-5z"></path><g id="node_text13" fill="black"><text id="kity_text_135" text-rendering="inherit" font-size="12" dy=".8em" y="491.7000000476837" x="1346.5">delete</text></g></g><g id="minder_node18" opacity="1"><g id="node_expander18" style="cursor: pointer;"><path id="kity_path_287" fill="white" stroke="gray" d="M1325.5,1119.5A6,6,0,1,1,1313.5,1119.5A6,6,0,1,1,1325.5,1119.5"></path><path id="kity_path_288" fill="none" stroke="gray" d="M1315,1119.5L1324,1119.5"></path></g><path id="node_outline19" fill="none" stroke="none" d="M1330.5,1108.5h101a5,5,0,0,1,5,5v12a5,5,0,0,1,-5,5h-101a5,5,0,0,1,-5,-5v-12a5,5,0,0,1,5,-5z" stroke-width="3"></path><g id="node_text19" fill="black"><text id="kity_text_147" text-rendering="inherit" font-size="12" dy=".8em" y="1111.7000000476837" x="1335.5">notificationclick</text></g></g><g id="minder_node23" opacity="1"><g id="node_expander27" style="cursor: pointer;"><path id="kity_path_314" fill="white" stroke="gray" d="M579.5,1189.5A6,6,0,1,1,567.5,1189.5A6,6,0,1,1,579.5,1189.5"></path><path id="kity_path_315" fill="none" stroke="gray" d="M569,1189.5L578,1189.5"></path></g><path id="node_outline28" fill="none" stroke="none" d="M472.5,1178.5h90a5,5,0,0,1,5,5v12a5,5,0,0,1,-5,5h-90a5,5,0,0,1,-5,-5v-12a5,5,0,0,1,5,-5z" stroke-width="3"></path><g id="node_text28" fill="black"><text id="kity_text_165" text-rendering="inherit" font-size="12" dy=".8em" y="1181.7000000476837" x="477.5">pushManager</text></g></g><g id="minder_node31"><g id="node_expander34" style="cursor: pointer;"><path id="kity_path_335" fill="white" stroke="gray" d="M1129.5,891.5A6,6,0,1,1,1117.5,891.5A6,6,0,1,1,1129.5,891.5"></path><path id="kity_path_336" fill="none" stroke="gray" d="M1119,891.5L1128,891.5"></path></g><path id="node_outline35" fill="rgb(238, 243, 246)" stroke="rgb(115, 161, 191)" d="M1133.5,878.5h57a3,3,0,0,1,3,3v20a3,3,0,0,1,-3,3h-57a3,3,0,0,1,-3,-3v-20a3,3,0,0,1,3,-3z" stroke-width="1"></path><g id="node_text35" fill="black"><text id="kity_text_179" text-rendering="inherit" font-size="14" dy=".8em" y="882.4000000953674" x="1150.5">SW</text></g></g><g id="minder_node32"><g id="node_expander33" style="cursor: pointer;"><path id="kity_path_332" fill="white" stroke="gray" d="M1233.5,891.5A6,6,0,1,1,1221.5,891.5A6,6,0,1,1,1233.5,891.5"></path><path id="kity_path_333" fill="none" stroke="gray" d="M1223,891.5L1232,891.5"></path></g><path id="node_outline34" fill="none" stroke="none" d="M1238.5,880.5h42a5,5,0,0,1,5,5v12a5,5,0,0,1,-5,5h-42a5,5,0,0,1,-5,-5v-12a5,5,0,0,1,5,-5z" stroke-width="3"></path><g id="node_text34" fill="black"><text id="kity_text_177" text-rendering="inherit" font-size="12" dy=".8em" y="883.7000000476837" x="1243.5">event</text></g></g><g id="minder_node33"><g id="node_expander30" style="cursor: pointer;" display="none"><path id="kity_path_323" fill="white" stroke="gray" d="M1325.5,664.5A6,6,0,1,1,1313.5,664.5A6,6,0,1,1,1325.5,664.5"></path><path id="kity_path_324" fill="none" stroke="gray"></path></g><path id="node_outline31" fill="none" stroke="none" d="M1330.5,653.5h44a5,5,0,0,1,5,5v12a5,5,0,0,1,-5,5h-44a5,5,0,0,1,-5,-5v-12a5,5,0,0,1,5,-5z"></path><g id="node_text31" fill="black"><text id="kity_text_171" text-rendering="inherit" font-size="12" dy=".8em" y="656.7000000476837" x="1335.5">install</text></g></g><g id="minder_node34"><g id="node_expander31" style="cursor: pointer;" display="none"><path id="kity_path_326" fill="white" stroke="gray" d="M1325.5,716.5A6,6,0,1,1,1313.5,716.5A6,6,0,1,1,1325.5,716.5"></path><path id="kity_path_327" fill="none" stroke="gray"></path></g><path id="node_outline32" fill="none" stroke="none" d="M1330.5,705.5h39a5,5,0,0,1,5,5v12a5,5,0,0,1,-5,5h-39a5,5,0,0,1,-5,-5v-12a5,5,0,0,1,5,-5z" stroke-width="3"></path><g id="node_text32" fill="black"><text id="kity_text_173" text-rendering="inherit" font-size="12" dy=".8em" y="708.7000000476837" x="1335.5">fetch</text></g></g><g id="minder_node35"><g id="node_expander32" style="cursor: pointer;" display="none"><path id="kity_path_329" fill="white" stroke="gray" d="M1325.5,976.5A6,6,0,1,1,1313.5,976.5A6,6,0,1,1,1325.5,976.5"></path><path id="kity_path_330" fill="none" stroke="gray"></path></g><path id="node_outline33" fill="none" stroke="none" d="M1330.5,965.5h55a5,5,0,0,1,5,5v12a5,5,0,0,1,-5,5h-55a5,5,0,0,1,-5,-5v-12a5,5,0,0,1,5,-5z"></path><g id="node_text33" fill="black"><text id="kity_text_175" text-rendering="inherit" font-size="12" dy=".8em" y="968.7000000476837" x="1335.5">activate</text></g></g><g id="minder_node36"><g id="node_expander35" style="cursor: pointer;" display="none"><path id="kity_path_338" fill="white" stroke="gray" d="M1129.5,1248.5A6,6,0,1,1,1117.5,1248.5A6,6,0,1,1,1129.5,1248.5"></path><path id="kity_path_339" fill="none" stroke="gray"></path></g><path id="node_outline36" fill="rgb(238, 243, 246)" stroke="rgb(115, 161, 191)" d="M1133.5,1235.5h259a3,3,0,0,1,3,3v20a3,3,0,0,1,-3,3h-259a3,3,0,0,1,-3,-3v-20a3,3,0,0,1,3,-3z" stroke-width="1"></path><g id="node_text36" fill="black"><text id="kity_text_181" text-rendering="inherit" font-size="14" dy=".8em" y="1239.4000000953674" x="1150.5">event.waitUtil/event.respondWith</text></g></g><g id="minder_node37"><g id="node_expander36" style="cursor: pointer;"><path id="kity_path_341" fill="white" stroke="gray" d="M739.5,608.5A6,6,0,1,1,727.5,608.5A6,6,0,1,1,739.5,608.5"></path><path id="kity_path_342" fill="none" stroke="gray" d="M729,608.5L738,608.5"></path></g><path id="node_outline37" fill="rgb(238, 243, 246)" stroke="rgb(115, 161, 191)" d="M646.5,595.5h77a3,3,0,0,1,3,3v20a3,3,0,0,1,-3,3h-77a3,3,0,0,1,-3,-3v-20a3,3,0,0,1,3,-3z" stroke-width="1"></path><g id="node_text37" fill="black"><text id="kity_text_183" text-rendering="inherit" font-size="14" dy=".8em" y="599.4000000953674" x="663.5">clients</text></g></g><g id="minder_node38"><g id="node_expander41" style="cursor: pointer;"><path id="kity_path_356" fill="white" stroke="gray" d="M739.5,1073.5A6,6,0,1,1,727.5,1073.5A6,6,0,1,1,739.5,1073.5"></path><path id="kity_path_357" fill="none" stroke="gray" d="M729,1073.5L738,1073.5"></path></g><path id="node_outline42" fill="rgb(238, 243, 246)" stroke="rgb(115, 161, 191)" d="M612.5,1060.5h111a3,3,0,0,1,3,3v20a3,3,0,0,1,-3,3h-111a3,3,0,0,1,-3,-3v-20a3,3,0,0,1,3,-3z" stroke-width="1"></path><g id="node_text42" fill="black"><text id="kity_text_193" text-rendering="inherit" font-size="14" dy=".8em" y="1064.4000000953674" x="629.5">registration</text></g></g><g id="minder_node39"><g id="node_expander37" style="cursor: pointer;" display="none"><path id="kity_path_344" fill="white" stroke="gray" d="M581.5,904.5A6,6,0,1,1,569.5,904.5A6,6,0,1,1,581.5,904.5"></path><path id="kity_path_345" fill="none" stroke="gray"></path></g><path id="node_outline38" fill="none" stroke="none" d="M454.5,893.5h110a5,5,0,0,1,5,5v12a5,5,0,0,1,-5,5h-110a5,5,0,0,1,-5,-5v-12a5,5,0,0,1,5,-5z" stroke-width="3"></path><g id="node_text38" fill="black"><text id="kity_text_185" text-rendering="inherit" font-size="12" dy=".8em" y="896.7000000476837" x="459.5">getNotifications()</text></g></g><g id="minder_node40"><g id="node_expander38" style="cursor: pointer;" display="none"><path id="kity_path_347" fill="white" stroke="gray" d="M581.5,956.5A6,6,0,1,1,569.5,956.5A6,6,0,1,1,581.5,956.5"></path><path id="kity_path_348" fill="none" stroke="gray"></path></g><path id="node_outline39" fill="none" stroke="none" d="M448.5,945.5h116a5,5,0,0,1,5,5v12a5,5,0,0,1,-5,5h-116a5,5,0,0,1,-5,-5v-12a5,5,0,0,1,5,-5z" stroke-width="3"></path><g id="node_text39" fill="black"><text id="kity_text_187" text-rendering="inherit" font-size="12" dy=".8em" y="948.7000000476837" x="453.5">showNotification()</text></g></g><g id="minder_node41"><g id="node_expander39" style="cursor: pointer;" display="none"><path id="kity_path_350" fill="white" stroke="gray" d="M581.5,1008.5A6,6,0,1,1,569.5,1008.5A6,6,0,1,1,581.5,1008.5"></path><path id="kity_path_351" fill="none" stroke="gray"></path></g><path id="node_outline40" fill="none" stroke="none" d="M488.5,997.5h76a5,5,0,0,1,5,5v12a5,5,0,0,1,-5,5h-76a5,5,0,0,1,-5,-5v-12a5,5,0,0,1,5,-5z" stroke-width="3"></path><g id="node_text40" fill="black"><text id="kity_text_189" text-rendering="inherit" font-size="12" dy=".8em" y="1000.7000000476837" x="493.5">unregister()</text></g></g><g id="minder_node42"><g id="node_expander40" style="cursor: pointer;" display="none"><path id="kity_path_353" fill="white" stroke="gray" d="M581.5,1060.5A6,6,0,1,1,569.5,1060.5A6,6,0,1,1,581.5,1060.5"></path><path id="kity_path_354" fill="none" stroke="gray"></path></g><path id="node_outline41" fill="none" stroke="none" d="M505.5,1049.5h59a5,5,0,0,1,5,5v12a5,5,0,0,1,-5,5h-59a5,5,0,0,1,-5,-5v-12a5,5,0,0,1,5,-5z" stroke-width="3"></path><g id="node_text41" fill="black"><text id="kity_text_191" text-rendering="inherit" font-size="12" dy=".8em" y="1052.7000000476837" x="510.5">update()</text></g></g><g id="minder_node44"><g id="node_expander43" style="cursor: pointer;"><path id="kity_path_372" fill="white" stroke="gray" d="M1325.5,820.5A6,6,0,1,1,1313.5,820.5A6,6,0,1,1,1325.5,820.5"></path><path id="kity_path_373" fill="none" stroke="gray" d="M1315,820.5L1324,820.5"></path></g><path id="node_outline44" fill="none" stroke="none" d="M1330.5,809.5h38a5,5,0,0,1,5,5v12a5,5,0,0,1,-5,5h-38a5,5,0,0,1,-5,-5v-12a5,5,0,0,1,5,-5z" stroke-width="3"></path><g id="node_text44" fill="black"><text id="kity_text_369" text-rendering="inherit" font-size="12" dy=".8em" y="812.7000000476837" x="1335.5">push</text></g></g><g id="minder_node46"><g id="node_expander45" style="cursor: pointer;" display="none"><path id="kity_path_388" fill="white" stroke="gray" d="M1325.5,924.5A6,6,0,1,1,1313.5,924.5A6,6,0,1,1,1325.5,924.5"></path><path id="kity_path_389" fill="none" stroke="gray"></path></g><path id="node_outline46" fill="none" stroke="none" d="M1330.5,913.5h105a5,5,0,0,1,5,5v12a5,5,0,0,1,-5,5h-105a5,5,0,0,1,-5,-5v-12a5,5,0,0,1,5,-5z" stroke-width="3"></path><g id="node_text46" fill="black"><text id="kity_text_385" text-rendering="inherit" font-size="12" dy=".8em" y="916.7000000476837" x="1335.5">notificationclose</text></g></g><g id="minder_node47"><g id="node_expander46" style="cursor: pointer;" display="none"><path id="kity_path_396" fill="white" stroke="gray" d="M1325.5,1028.5A6,6,0,1,1,1313.5,1028.5A6,6,0,1,1,1325.5,1028.5"></path><path id="kity_path_397" fill="none" stroke="gray"></path></g><path id="node_outline47" fill="none" stroke="none" d="M1330.5,1017.5h60a5,5,0,0,1,5,5v12a5,5,0,0,1,-5,5h-60a5,5,0,0,1,-5,-5v-12a5,5,0,0,1,5,-5z" stroke-width="3"></path><g id="node_text47" fill="black"><text id="kity_text_393" text-rendering="inherit" font-size="12" dy=".8em" y="1020.7000000476837" x="1335.5">message</text></g></g><g id="minder_node26"><g id="node_expander20" style="cursor: pointer;" display="none"><path id="kity_path_293" fill="white" stroke="gray" d="M129.5,1059.5A6,6,0,1,1,117.5,1059.5A6,6,0,1,1,129.5,1059.5"></path><path id="kity_path_294" fill="none" stroke="gray"></path></g><path id="node_outline21" fill="none" stroke="none" d="M25.5,1048.5h87a5,5,0,0,1,5,5v12a5,5,0,0,1,-5,5h-87a5,5,0,0,1,-5,-5v-12a5,5,0,0,1,5,-5z"></path><g id="node_text21" fill="black"><text id="kity_text_151" text-rendering="inherit" font-size="12" dy=".8em" y="1051.7000000476837" x="30.5">unsubscribe()</text></g></g><g id="minder_node27"><g id="node_expander21" style="cursor: pointer;" display="none"><path id="kity_path_296" fill="white" stroke="gray" d="M129.5,1111.5A6,6,0,1,1,117.5,1111.5A6,6,0,1,1,129.5,1111.5"></path><path id="kity_path_297" fill="none" stroke="gray"></path></g><path id="node_outline22" fill="none" stroke="none" d="M54.5,1100.5h58a5,5,0,0,1,5,5v12a5,5,0,0,1,-5,5h-58a5,5,0,0,1,-5,-5v-12a5,5,0,0,1,5,-5z"></path><g id="node_text22" fill="black"><text id="kity_text_153" text-rendering="inherit" font-size="12" dy=".8em" y="1103.7000000476837" x="59.5">getKey()</text></g></g><g id="minder_node28"><g id="node_expander22" style="cursor: pointer;" display="none"><path id="kity_path_299" fill="white" stroke="gray" d="M129.5,1163.5A6,6,0,1,1,117.5,1163.5A6,6,0,1,1,129.5,1163.5"></path><path id="kity_path_300" fill="none" stroke="gray"></path></g><path id="node_outline23" fill="none" stroke="none" d="M50.5,1152.5h62a5,5,0,0,1,5,5v12a5,5,0,0,1,-5,5h-62a5,5,0,0,1,-5,-5v-12a5,5,0,0,1,5,-5z"></path><g id="node_text23" fill="black"><text id="kity_text_155" text-rendering="inherit" font-size="12" dy=".8em" y="1155.7000000476837" x="55.5">endPoint</text></g></g><g id="minder_node25"><g id="node_expander23" style="cursor: pointer;"><path id="kity_path_302" fill="white" stroke="gray" d="M280.5,1111.5A6,6,0,1,1,268.5,1111.5A6,6,0,1,1,280.5,1111.5"></path><path id="kity_path_303" fill="none" stroke="gray" d="M270,1111.5L279,1111.5"></path></g><path id="node_outline24" fill="none" stroke="none" d="M162.5,1100.5h101a5,5,0,0,1,5,5v12a5,5,0,0,1,-5,5h-101a5,5,0,0,1,-5,-5v-12a5,5,0,0,1,5,-5z"></path><g id="node_text24" fill="black"><text id="kity_text_157" text-rendering="inherit" font-size="12" dy=".8em" y="1103.7000000476837" x="167.5">subscriptionObj</text></g></g><g id="minder_node24"><g id="node_expander24" style="cursor: pointer;"><path id="kity_path_305" fill="white" stroke="gray" d="M439.5,1111.5A6,6,0,1,1,427.5,1111.5A6,6,0,1,1,439.5,1111.5"></path><path id="kity_path_306" fill="none" stroke="gray" d="M429,1111.5L438,1111.5"></path></g><path id="node_outline25" fill="none" stroke="none" d="M313.5,1100.5h109a5,5,0,0,1,5,5v12a5,5,0,0,1,-5,5h-109a5,5,0,0,1,-5,-5v-12a5,5,0,0,1,5,-5z" stroke-width="3"></path><g id="node_text25" fill="black"><text id="kity_text_159" text-rendering="inherit" font-size="12" dy=".8em" y="1103.7000000476837" x="318.5">getSubscription()</text></g></g><g id="minder_node29"><g id="node_expander25" style="cursor: pointer;" display="none"><path id="kity_path_308" fill="white" stroke="gray" d="M439.5,1215.5A6,6,0,1,1,427.5,1215.5A6,6,0,1,1,439.5,1215.5"></path><path id="kity_path_309" fill="none" stroke="gray"></path></g><path id="node_outline26" fill="none" stroke="none" d="M350.5,1204.5h72a5,5,0,0,1,5,5v12a5,5,0,0,1,-5,5h-72a5,5,0,0,1,-5,-5v-12a5,5,0,0,1,5,-5z"></path><g id="node_text26" fill="black"><text id="kity_text_161" text-rendering="inherit" font-size="12" dy=".8em" y="1207.7000000476837" x="355.5">subscribe()</text></g></g><g id="minder_node30"><g id="node_expander26" style="cursor: pointer;" display="none"><path id="kity_path_311" fill="white" stroke="gray" d="M439.5,1267.5A6,6,0,1,1,427.5,1267.5A6,6,0,1,1,439.5,1267.5"></path><path id="kity_path_312" fill="none" stroke="gray"></path></g><path id="node_outline27" fill="none" stroke="none" d="M312.5,1256.5h110a5,5,0,0,1,5,5v12a5,5,0,0,1,-5,5h-110a5,5,0,0,1,-5,-5v-12a5,5,0,0,1,5,-5z"></path><g id="node_text27" fill="black"><text id="kity_text_163" text-rendering="inherit" font-size="12" dy=".8em" y="1259.7000000476837" x="317.5">permissionState()</text></g></g><g id="minder_node19"><g id="node_expander15" style="cursor: pointer;" display="none"><path id="kity_path_278" fill="white" stroke="gray" d="M1476.5,1080.5A6,6,0,1,1,1464.5,1080.5A6,6,0,1,1,1476.5,1080.5"></path><path id="kity_path_279" fill="none" stroke="gray"></path></g><path id="node_outline16" fill="none" stroke="none" d="M1481.5,1069.5h80a5,5,0,0,1,5,5v12a5,5,0,0,1,-5,5h-80a5,5,0,0,1,-5,-5v-12a5,5,0,0,1,5,-5z" stroke-width="3"></path><g id="node_text16" fill="black"><text id="kity_text_141" text-rendering="inherit" font-size="12" dy=".8em" y="1072.7000000476837" x="1486.5">event.action</text></g></g><g id="minder_node21"><g id="node_expander16" style="cursor: pointer;" display="none"><path id="kity_path_281" fill="white" stroke="gray" d="M1636.5,1132.5A6,6,0,1,1,1624.5,1132.5A6,6,0,1,1,1636.5,1132.5"></path><path id="kity_path_282" fill="none" stroke="gray"></path></g><path id="node_outline17" fill="none" stroke="none" d="M1641.5,1121.5h47a5,5,0,0,1,5,5v12a5,5,0,0,1,-5,5h-47a5,5,0,0,1,-5,-5v-12a5,5,0,0,1,5,-5z" stroke-width="3"></path><g id="node_text17" fill="black"><text id="kity_text_143" text-rendering="inherit" font-size="12" dy=".8em" y="1124.7000000476837" x="1646.5">close()</text></g></g><g id="minder_node20"><g id="node_expander17" style="cursor: pointer;"><path id="kity_path_284" fill="white" stroke="gray" d="M1476.5,1158.5A6,6,0,1,1,1464.5,1158.5A6,6,0,1,1,1476.5,1158.5"></path><path id="kity_path_285" fill="none" stroke="gray" d="M1466,1158.5L1475,1158.5"></path></g><path id="node_outline18" fill="none" stroke="none" d="M1481.5,1147.5h110a5,5,0,0,1,5,5v12a5,5,0,0,1,-5,5h-110a5,5,0,0,1,-5,-5v-12a5,5,0,0,1,5,-5z" stroke-width="3"></path><g id="node_text18" fill="black"><text id="kity_text_145" text-rendering="inherit" font-size="12" dy=".8em" y="1150.7000000476837" x="1486.5">event.notification</text></g></g><g id="minder_node48"><g id="node_expander47" style="cursor: pointer;" display="none"><path id="kity_path_421" fill="white" stroke="gray" d="M615.5,374.5A6,6,0,1,1,603.5,374.5A6,6,0,1,1,615.5,374.5"></path><path id="kity_path_422" fill="none" stroke="gray" d="M605,374.5L614,374.5"></path></g><path id="node_outline48" fill="none" stroke="none" d="M550.5,363.5h48a5,5,0,0,1,5,5v12a5,5,0,0,1,-5,5h-48a5,5,0,0,1,-5,-5v-12a5,5,0,0,1,5,-5z" stroke-width="3"></path><g id="node_text48" fill="black"><text id="kity_text_418" text-rendering="inherit" font-size="12" dy=".8em" y="366.7000000476837" x="555.5">get(id)</text></g></g><g id="minder_node49"><g id="node_expander48" style="cursor: pointer;" display="none"><path id="kity_path_429" fill="white" stroke="gray" d="M1636.5,1184.5A6,6,0,1,1,1624.5,1184.5A6,6,0,1,1,1636.5,1184.5"></path><path id="kity_path_430" fill="none" stroke="gray"></path></g><path id="node_outline49" fill="none" stroke="none" d="M1641.5,1173.5h104a5,5,0,0,1,5,5v12a5,5,0,0,1,-5,5h-104a5,5,0,0,1,-5,-5v-12a5,5,0,0,1,5,-5z" stroke-width="3"></path><g id="node_text49" fill="black"><text id="kity_text_426" text-rendering="inherit" font-size="12" dy=".8em" y="1176.7000000476837" x="1646.5">other properties</text></g></g><g id="minder_node50"><g id="node_expander49" style="cursor: pointer;"><path id="kity_path_437" fill="white" stroke="gray" d="M1413.5,820.5A6,6,0,1,1,1401.5,820.5A6,6,0,1,1,1413.5,820.5"></path><path id="kity_path_438" fill="none" stroke="gray" d="M1403,820.5L1412,820.5"></path></g><path id="node_outline50" fill="none" stroke="none" d="M1418.5,809.5h105a5,5,0,0,1,5,5v12a5,5,0,0,1,-5,5h-105a5,5,0,0,1,-5,-5v-12a5,5,0,0,1,5,-5z" stroke-width="3"></path><g id="node_text50" fill="black"><text id="kity_text_434" text-rendering="inherit" font-size="12" dy=".8em" y="812.7000000476837" x="1423.5">event.data.json()</text></g></g><g id="minder_node53"><g id="node_expander52" style="cursor: pointer;" display="none"><path id="kity_path_461" fill="white" stroke="gray" d="M1568.5,768.5A6,6,0,1,1,1556.5,768.5A6,6,0,1,1,1568.5,768.5"></path><path id="kity_path_462" fill="none" stroke="gray"></path></g><path id="node_outline53" fill="none" stroke="none" d="M1573.5,757.5h33a5,5,0,0,1,5,5v12a5,5,0,0,1,-5,5h-33a5,5,0,0,1,-5,-5v-12a5,5,0,0,1,5,-5z" stroke-width="3"></path><g id="node_text53" fill="black"><text id="kity_text_458" text-rendering="inherit" font-size="12" dy=".8em" y="760.7000000476837" x="1578.5">title</text></g></g><g id="minder_node54"><g id="node_expander53" style="cursor: pointer;" display="none"><path id="kity_path_469" fill="white" stroke="gray" d="M1568.5,820.5A6,6,0,1,1,1556.5,820.5A6,6,0,1,1,1568.5,820.5"></path><path id="kity_path_470" fill="none" stroke="gray"></path></g><path id="node_outline54" fill="none" stroke="none" d="M1573.5,809.5h34a5,5,0,0,1,5,5v12a5,5,0,0,1,-5,5h-34a5,5,0,0,1,-5,-5v-12a5,5,0,0,1,5,-5z" stroke-width="3"></path><g id="node_text54" fill="black"><text id="kity_text_466" text-rendering="inherit" font-size="12" dy=".8em" y="812.7000000476837" x="1578.5">icon</text></g></g><g id="minder_node55"><g id="node_expander54" style="cursor: pointer;" display="none"><path id="kity_path_477" fill="white" stroke="gray" d="M1568.5,872.5A6,6,0,1,1,1556.5,872.5A6,6,0,1,1,1568.5,872.5"></path><path id="kity_path_478" fill="none" stroke="gray"></path></g><path id="node_outline55" fill="none" stroke="none" d="M1573.5,861.5h19a5,5,0,0,1,5,5v12a5,5,0,0,1,-5,5h-19a5,5,0,0,1,-5,-5v-12a5,5,0,0,1,5,-5z" stroke-width="3"></path><g id="node_text55" fill="black"><text id="kity_text_474" text-rendering="inherit" font-size="12" dy=".8em" y="864.7000000476837" x="1578.5">...</text></g></g><g id="minder_node56"><g id="node_expander55" style="cursor: pointer;" display="none"><path id="kity_path_485" fill="white" stroke="gray" d="M615.5,842.5A6,6,0,1,1,603.5,842.5A6,6,0,1,1,615.5,842.5"></path><path id="kity_path_486" fill="none" stroke="gray" d="M605,842.5L614,842.5"></path></g><path id="node_outline56" fill="none" stroke="none" d="M488.5,831.5h110a5,5,0,0,1,5,5v12a5,5,0,0,1,-5,5h-110a5,5,0,0,1,-5,-5v-12a5,5,0,0,1,5,-5z" stroke-width="3"></path><g id="node_text56" fill="black"><text id="kity_text_482" text-rendering="inherit" font-size="12" dy=".8em" y="834.7000000476837" x="493.5">openWindow(url)</text></g></g><g id="kity_g_12" display="none"><path id="kity_path_13" fill="none" stroke="rgb(66, 94, 112)" d="M486.5,688.5h112a5,5,0,0,1,5,5v12a5,5,0,0,1,-5,5h-112a5,5,0,0,1,-5,-5v-12a5,5,0,0,1,5,-5z" stroke-width="5"></path></g><g id="minder_node59"><g id="node_expander58" style="cursor: pointer;"><path id="kity_path_509" fill="white" stroke="gray" d="M615.5,608.5A6,6,0,1,1,603.5,608.5A6,6,0,1,1,615.5,608.5"></path><path id="kity_path_510" fill="none" stroke="gray" d="M605,608.5L614,608.5"></path></g><path id="node_outline59" fill="none" stroke="none" d="M486.5,597.5h112a5,5,0,0,1,5,5v12a5,5,0,0,1,-5,5h-112a5,5,0,0,1,-5,-5v-12a5,5,0,0,1,5,-5z" stroke-width="3"></path><g id="node_text59" fill="black"><text id="kity_text_506" text-rendering="inherit" font-size="12" dy=".8em" y="600.7000000476837" x="491.5">matchAll(options)</text></g></g><g id="minder_node60"><g id="node_expander59" style="cursor: pointer;"><path id="kity_path_517" fill="white" stroke="gray" d="M453.5,608.5A6,6,0,1,1,441.5,608.5A6,6,0,1,1,453.5,608.5"></path><path id="kity_path_518" fill="none" stroke="gray" d="M443,608.5L452,608.5"></path></g><path id="node_outline60" fill="none" stroke="none" d="M394.5,597.5h42a5,5,0,0,1,5,5v12a5,5,0,0,1,-5,5h-42a5,5,0,0,1,-5,-5v-12a5,5,0,0,1,5,-5z" stroke-width="3"></path><g id="node_text60" fill="black"><text id="kity_text_514" text-rendering="inherit" font-size="12" dy=".8em" y="600.7000000476837" x="399.5">client</text></g></g><g id="minder_node61"><g id="node_expander60" style="cursor: pointer;" display="none"><path id="kity_path_525" fill="white" stroke="gray" d="M361.5,426.5A6,6,0,1,1,349.5,426.5A6,6,0,1,1,361.5,426.5"></path><path id="kity_path_526" fill="none" stroke="gray"></path></g><path id="node_outline61" fill="none" stroke="none" d="M170.5,415.5h174a5,5,0,0,1,5,5v12a5,5,0,0,1,-5,5h-174a5,5,0,0,1,-5,-5v-12a5,5,0,0,1,5,-5z" stroke-width="3"></path><g id="node_text61" fill="black"><text id="kity_text_522" text-rendering="inherit" font-size="12" dy=".8em" y="418.7000000476837" x="175.5">postMessage(msg[,transfer])</text></g></g><g id="minder_node62"><g id="node_expander61" style="cursor: pointer;" display="none"><path id="kity_path_533" fill="white" stroke="gray" d="M361.5,686.5A6,6,0,1,1,349.5,686.5A6,6,0,1,1,361.5,686.5"></path><path id="kity_path_534" fill="none" stroke="gray"></path></g><path id="node_outline62" fill="none" stroke="none" d="M319.5,675.5h25a5,5,0,0,1,5,5v12a5,5,0,0,1,-5,5h-25a5,5,0,0,1,-5,-5v-12a5,5,0,0,1,5,-5z" stroke-width="3"></path><g id="node_text62" fill="black"><text id="kity_text_530" text-rendering="inherit" font-size="12" dy=".8em" y="678.7000000476837" x="324.5">url</text></g></g><g id="minder_node63"><g id="node_expander62" style="cursor: pointer;" display="none"><path id="kity_path_541" fill="white" stroke="gray" d="M361.5,738.5A6,6,0,1,1,349.5,738.5A6,6,0,1,1,361.5,738.5"></path><path id="kity_path_542" fill="none" stroke="gray"></path></g><path id="node_outline63" fill="none" stroke="none" d="M289.5,727.5h55a5,5,0,0,1,5,5v12a5,5,0,0,1,-5,5h-55a5,5,0,0,1,-5,-5v-12a5,5,0,0,1,5,-5z" stroke-width="3"></path><g id="node_text63" fill="black"><text id="kity_text_538" text-rendering="inherit" font-size="12" dy=".8em" y="730.7000000476837" x="294.5">focused</text></g></g><g id="minder_node64"><g id="node_expander63" style="cursor: pointer;" display="none"><path id="kity_path_549" fill="white" stroke="gray" d="M361.5,790.5A6,6,0,1,1,349.5,790.5A6,6,0,1,1,361.5,790.5"></path><path id="kity_path_550" fill="none" stroke="gray"></path></g><path id="node_outline64" fill="none" stroke="none" d="M257.5,779.5h87a5,5,0,0,1,5,5v12a5,5,0,0,1,-5,5h-87a5,5,0,0,1,-5,-5v-12a5,5,0,0,1,5,-5z" stroke-width="3"></path><g id="node_text64" fill="black"><text id="kity_text_546" text-rendering="inherit" font-size="12" dy=".8em" y="782.7000000476837" x="262.5">visibilityState</text></g></g><g id="minder_node67"><g id="node_expander66" style="cursor: pointer;" display="none"><path id="kity_path_573" fill="white" stroke="gray" d="M361.5,478.5A6,6,0,1,1,349.5,478.5A6,6,0,1,1,361.5,478.5"></path><path id="kity_path_574" fill="none" stroke="gray"></path></g><path id="node_outline67" fill="none" stroke="none" d="M262.5,467.5h82a5,5,0,0,1,5,5v12a5,5,0,0,1,-5,5h-82a5,5,0,0,1,-5,-5v-12a5,5,0,0,1,5,-5z" stroke-width="3"></path><g id="node_text67" fill="black"><text id="kity_text_570" text-rendering="inherit" font-size="12" dy=".8em" y="470.7000000476837" x="267.5">navigate(url)</text></g></g><g id="minder_node68"><g id="node_expander67" style="cursor: pointer;" display="none"><path id="kity_path_581" fill="white" stroke="gray" d="M361.5,530.5A6,6,0,1,1,349.5,530.5A6,6,0,1,1,361.5,530.5"></path><path id="kity_path_582" fill="none" stroke="gray"></path></g><path id="node_outline68" fill="none" stroke="none" d="M295.5,519.5h49a5,5,0,0,1,5,5v12a5,5,0,0,1,-5,5h-49a5,5,0,0,1,-5,-5v-12a5,5,0,0,1,5,-5z" stroke-width="3"></path><g id="node_text68" fill="black"><text id="kity_text_578" text-rendering="inherit" font-size="12" dy=".8em" y="522.7000000476837" x="300.5">focus()</text></g></g><g id="minder_node69"><g id="node_expander68" style="cursor: pointer;" display="none"><path id="kity_path_589" fill="white" stroke="gray" d="M361.5,634.5A6,6,0,1,1,349.5,634.5A6,6,0,1,1,361.5,634.5"></path><path id="kity_path_590" fill="none" stroke="gray"></path></g><path id="node_outline69" fill="none" stroke="none" d="M323.5,623.5h21a5,5,0,0,1,5,5v12a5,5,0,0,1,-5,5h-21a5,5,0,0,1,-5,-5v-12a5,5,0,0,1,5,-5z" stroke-width="3"></path><g id="node_text69" fill="black"><text id="kity_text_586" text-rendering="inherit" font-size="12" dy=".8em" y="626.7000000476837" x="328.5">id</text></g></g><g id="minder_node70"><g id="node_expander69" style="cursor: pointer;" display="none"><path id="kity_path_597" fill="white" stroke="gray" d="M361.5,582.5A6,6,0,1,1,349.5,582.5A6,6,0,1,1,361.5,582.5"></path><path id="kity_path_598" fill="none" stroke="gray"></path></g><path id="node_outline70" fill="none" stroke="none" d="M273.5,571.5h71a5,5,0,0,1,5,5v12a5,5,0,0,1,-5,5h-71a5,5,0,0,1,-5,-5v-12a5,5,0,0,1,5,-5z" stroke-width="3"></path><g id="node_text70" fill="black"><text id="kity_text_594" text-rendering="inherit" font-size="12" dy=".8em" y="574.7000000476837" x="278.5">frameType</text></g></g></g></g></svg>